{
  "asset": {
    "version": "2.0",
    "generator": "A3D V2 product generator"
  },
  "scene": 0,
  "scenes": [
    {
      "name": "speaker-scene",
      "nodes": [
        0,
        1,
        2,
        3,
        4,
        5,
        6,
        7,
        8,
        9,
        10
      ]
    }
  ],
  "nodes": [
    {
      "name": "cabinet",
      "mesh": 0,
      "translation": [
        0,
        0,
        0
      ],
      "scale": [
        1.85,
        2.85,
        1.02
      ]
    },
    {
      "name": "front-grille",
      "mesh": 1,
      "translation": [
        0,
        0.12,
        0.55
      ],
      "scale": [
        1.52,
        2.32,
        0.08
      ]
    },
    {
      "name": "woofer-cone",
      "mesh": 2,
      "translation": [
        0,
        -0.36,
        0.66
      ],
      "scale": [
        0.62,
        0.62,
        0.12
      ],
      "rotation": [
        0.7071067811865475,
        0,
        0,
        0.7071067811865476
      ]
    },
    {
      "name": "tweeter",
      "mesh": 3,
      "translation": [
        0,
        0.74,
        0.68
      ],
      "scale": [
        0.28,
        0.28,
        0.08
      ],
      "rotation": [
        0.7071067811865475,
        0,
        0,
        0.7071067811865476
      ]
    },
    {
      "name": "left-knob",
      "mesh": 4,
      "translation": [
        -0.47,
        1.2,
        0.68
      ],
      "scale": [
        0.12,
        0.12,
        0.08
      ],
      "rotation": [
        0.7071067811865475,
        0,
        0,
        0.7071067811865476
      ]
    },
    {
      "name": "right-knob",
      "mesh": 5,
      "translation": [
        0.47,
        1.2,
        0.68
      ],
      "scale": [
        0.12,
        0.12,
        0.08
      ],
      "rotation": [
        0.7071067811865475,
        0,
        0,
        0.7071067811865476
      ]
    },
    {
      "name": "rear-port",
      "mesh": 6,
      "translation": [
        0,
        -0.22,
        -0.58
      ],
      "scale": [
        0.34,
        0.34,
        0.1
      ],
      "rotation": [
        0.7071067811865475,
        0,
        0,
        0.7071067811865476
      ]
    },
    {
      "name": "front-left-rubber-foot",
      "mesh": 7,
      "translation": [
        -0.62,
        -1.52,
        0.28
      ],
      "scale": [
        0.34,
        0.12,
        0.28
      ]
    },
    {
      "name": "front-right-rubber-foot",
      "mesh": 8,
      "translation": [
        0.62,
        -1.52,
        0.28
      ],
      "scale": [
        0.34,
        0.12,
        0.28
      ]
    },
    {
      "name": "rear-left-rubber-foot",
      "mesh": 9,
      "translation": [
        -0.62,
        -1.52,
        -0.28
      ],
      "scale": [
        0.34,
        0.12,
        0.28
      ]
    },
    {
      "name": "rear-right-rubber-foot",
      "mesh": 10,
      "translation": [
        0.62,
        -1.52,
        -0.28
      ],
      "scale": [
        0.34,
        0.12,
        0.28
      ]
    }
  ],
  "meshes": [
    {
      "name": "cabinet",
      "primitives": [
        {
          "attributes": {
            "POSITION": 0,
            "NORMAL": 1,
            "TEXCOORD_0": 2
          },
          "indices": 3,
          "material": 0
        }
      ]
    },
    {
      "name": "front-grille",
      "primitives": [
        {
          "attributes": {
            "POSITION": 4,
            "NORMAL": 5,
            "TEXCOORD_0": 6
          },
          "indices": 7,
          "material": 1
        }
      ]
    },
    {
      "name": "woofer-cone",
      "primitives": [
        {
          "attributes": {
            "POSITION": 8,
            "NORMAL": 9,
            "TEXCOORD_0": 10
          },
          "indices": 11,
          "material": 2
        }
      ]
    },
    {
      "name": "tweeter",
      "primitives": [
        {
          "attributes": {
            "POSITION": 12,
            "NORMAL": 13,
            "TEXCOORD_0": 14
          },
          "indices": 15,
          "material": 3
        }
      ]
    },
    {
      "name": "left-knob",
      "primitives": [
        {
          "attributes": {
            "POSITION": 16,
            "NORMAL": 17,
            "TEXCOORD_0": 18
          },
          "indices": 19,
          "material": 3
        }
      ]
    },
    {
      "name": "right-knob",
      "primitives": [
        {
          "attributes": {
            "POSITION": 20,
            "NORMAL": 21,
            "TEXCOORD_0": 22
          },
          "indices": 23,
          "material": 3
        }
      ]
    },
    {
      "name": "rear-port",
      "primitives": [
        {
          "attributes": {
            "POSITION": 24,
            "NORMAL": 25,
            "TEXCOORD_0": 26
          },
          "indices": 27,
          "material": 2
        }
      ]
    },
    {
      "name": "front-left-rubber-foot",
      "primitives": [
        {
          "attributes": {
            "POSITION": 28,
            "NORMAL": 29,
            "TEXCOORD_0": 30
          },
          "indices": 31,
          "material": 2
        }
      ]
    },
    {
      "name": "front-right-rubber-foot",
      "primitives": [
        {
          "attributes": {
            "POSITION": 32,
            "NORMAL": 33,
            "TEXCOORD_0": 34
          },
          "indices": 35,
          "material": 2
        }
      ]
    },
    {
      "name": "rear-left-rubber-foot",
      "primitives": [
        {
          "attributes": {
            "POSITION": 36,
            "NORMAL": 37,
            "TEXCOORD_0": 38
          },
          "indices": 39,
          "material": 2
        }
      ]
    },
    {
      "name": "rear-right-rubber-foot",
      "primitives": [
        {
          "attributes": {
            "POSITION": 40,
            "NORMAL": 41,
            "TEXCOORD_0": 42
          },
          "indices": 43,
          "material": 2
        }
      ]
    }
  ],
  "samplers": [
    {
      "magFilter": 9729,
      "minFilter": 9987,
      "wrapS": 10497,
      "wrapT": 10497
    }
  ],
  "images": [
    {
      "name": "satin-cabinet-base-color",
      "mimeType": "image/png",
      "uri": "data:image/png;base64,"
    },
    {
      "name": "satin-cabinet-metallic-roughness",
      "mimeType": "image/png",
      "uri": "data:image/png;base64,"
    },
    {
      "name": "satin-cabinet-normal",
      "mimeType": "image/png",
      "uri": "data:image/png;base64,"
    },
    {
      "name": "satin-cabinet-emissive",
      "mimeType": "image/png",
      "uri": "data:image/png;base64,"
    },
    {
      "name": "patterned-grille-base-color",
      "mimeType": "image/png",
      "uri": "data:image/png;base64,"
    },
    {
      "name": "patterned-grille-metallic-roughness",
      "mimeType": "image/png",
      "uri": "data:image/png;base64,"
    },
    {
      "name": "patterned-grille-normal",
      "mimeType": "image/png",
      "uri": "data:image/png;base64,"
    },
    {
      "name": "patterned-grille-emissive",
      "mimeType": "image/png",
      "uri": "data:image/png;base64,"
    },
    {
      "name": "rubber-cone-base-color",
      "mimeType": "image/png",
      "uri": "data:image/png;base64,"
    },
    {
      "name": "rubber-cone-metallic-roughness",
      "mimeType": "image/png",
      "uri": "data:image/png;base64,"
    },
    {
      "name": "rubber-cone-normal",
      "mimeType": "image/png",
      "uri": "data:image/png;base64,"
    },
    {
      "name": "rubber-cone-emissive",
      "mimeType": "image/png",
      "uri": "data:image/png;base64,"
    },
    {
      "name": "metallic-knobs-base-color",
      "mimeType": "image/png",
      "uri": "data:image/png;base64,"
    },
    {
      "name": "metallic-knobs-metallic-roughness",
      "mimeType": "image/png",
      "uri": "data:image/png;base64,"
    },
    {
      "name": "metallic-knobs-normal",
      "mimeType": "image/png",
      "uri": "data:image/png;base64,"
    },
    {
      "name": "metallic-knobs-emissive",
      "mimeType": "image/png",
      "uri": "data:image/png;base64,"
    }
  ],
  "textures": [
    {
      "name": "satin-cabinet-base-color",
      "source": 0,
      "sampler": 0
    },
    {
      "name": "satin-cabinet-metallic-roughness",
      "source": 1,
      "sampler": 0
    },
    {
      "name": "satin-cabinet-normal",
      "source": 2,
      "sampler": 0
    },
    {
      "name": "satin-cabinet-emissive",
      "source": 3,
      "sampler": 0
    },
    {
      "name": "patterned-grille-base-color",
      "source": 4,
      "sampler": 0
    },
    {
      "name": "patterned-grille-metallic-roughness",
      "source": 5,
      "sampler": 0
    },
    {
      "name": "patterned-grille-normal",
      "source": 6,
      "sampler": 0
    },
    {
      "name": "patterned-grille-emissive",
      "source": 7,
      "sampler": 0
    },
    {
      "name": "rubber-cone-base-color",
      "source": 8,
      "sampler": 0
    },
    {
      "name": "rubber-cone-metallic-roughness",
      "source": 9,
      "sampler": 0
    },
    {
      "name": "rubber-cone-normal",
      "source": 10,
      "sampler": 0
    },
    {
      "name": "rubber-cone-emissive",
      "source": 11,
      "sampler": 0
    },
    {
      "name": "metallic-knobs-base-color",
      "source": 12,
      "sampler": 0
    },
    {
      "name": "metallic-knobs-metallic-roughness",
      "source": 13,
      "sampler": 0
    },
    {
      "name": "metallic-knobs-normal",
      "source": 14,
      "sampler": 0
    },
    {
      "name": "metallic-knobs-emissive",
      "source": 15,
      "sampler": 0
    }
  ],
  "materials": [
    {
      "name": "satin-cabinet",
      "pbrMetallicRoughness": {
        "baseColorFactor": [
          0.42,
          0.25,
          0.13,
          1
        ],
        "metallicFactor": 0,
        "roughnessFactor": 0.44,
        "baseColorTexture": {
          "index": 0
        },
        "metallicRoughnessTexture": {
          "index": 1
        }
      },
      "normalTexture": {
        "index": 2,
        "scale": 0.25
      },
      "emissiveTexture": {
        "index": 3
      },
      "emissiveFactor": [
        0,
        0,
        0
      ],
      "alphaMode": "OPAQUE",
      "doubleSided": true
    },
    {
      "name": "patterned-grille",
      "pbrMetallicRoughness": {
        "baseColorFactor": [
          0.03,
          0.035,
          0.038,
          1
        ],
        "metallicFactor": 0.2,
        "roughnessFactor": 0.66,
        "baseColorTexture": {
          "index": 4
        },
        "metallicRoughnessTexture": {
          "index": 5
        }
      },
      "normalTexture": {
        "index": 6,
        "scale": 0.6
      },
      "emissiveTexture": {
        "index": 7
      },
      "emissiveFactor": [
        0,
        0,
        0
      ],
      "alphaMode": "OPAQUE",
      "doubleSided": true
    },
    {
      "name": "rubber-cone",
      "pbrMetallicRoughness": {
        "baseColorFactor": [
          0.015,
          0.014,
          0.014,
          1
        ],
        "metallicFactor": 0,
        "roughnessFactor": 0.9,
        "baseColorTexture": {
          "index": 8
        },
        "metallicRoughnessTexture": {
          "index": 9
        }
      },
      "normalTexture": {
        "index": 10,
        "scale": 0.55
      },
      "emissiveTexture": {
        "index": 11
      },
      "emissiveFactor": [
        0,
        0,
        0
      ],
      "alphaMode": "OPAQUE",
      "doubleSided": true
    },
    {
      "name": "metallic-knobs",
      "pbrMetallicRoughness": {
        "baseColorFactor": [
          0.82,
          0.78,
          0.68,
          1
        ],
        "metallicFactor": 1,
        "roughnessFactor": 0.22,
        "baseColorTexture": {
          "index": 12
        },
        "metallicRoughnessTexture": {
          "index": 13
        }
      },
      "normalTexture": {
        "index": 14,
        "scale": 0.35
      },
      "emissiveTexture": {
        "index": 15
      },
      "emissiveFactor": [
        0,
        0,
        0
      ],
      "alphaMode": "OPAQUE",
      "doubleSided": true
    }
  ],
  "buffers": [
    {
      "byteLength": 25392,
      "uri": "data:application/octet-stream;base64,"
    }
  ],
  "bufferViews": [
    {
      "buffer": 0,
      "byteOffset": 0,
      "byteLength": 288,
      "target": 34962
    },
    {
      "buffer": 0,
      "byteOffset": 288,
      "byteLength": 288,
      "target": 34962
    },
    {
      "buffer": 0,
      "byteOffset": 576,
      "byteLength": 192,
      "target": 34962
    },
    {
      "buffer": 0,
      "byteOffset": 768,
      "byteLength": 72,
      "target": 34963
    },
    {
      "buffer": 0,
      "byteOffset": 840,
      "byteLength": 288,
      "target": 34962
    },
    {
      "buffer": 0,
      "byteOffset": 1128,
      "byteLength": 288,
      "target": 34962
    },
    {
      "buffer": 0,
      "byteOffset": 1416,
      "byteLength": 192,
      "target": 34962
    },
    {
      "buffer": 0,
      "byteOffset": 1608,
      "byteLength": 72,
      "target": 34963
    },
    {
      "buffer": 0,
      "byteOffset": 1680,
      "byteLength": 1584,
      "target": 34962
    },
    {
      "buffer": 0,
      "byteOffset": 3264,
      "byteLength": 1584,
      "target": 34962
    },
    {
      "buffer": 0,
      "byteOffset": 4848,
      "byteLength": 1056,
      "target": 34962
    },
    {
      "buffer": 0,
      "byteOffset": 5904,
      "byteLength": 1536,
      "target": 34963
    },
    {
      "buffer": 0,
      "byteOffset": 7440,
      "byteLength": 1200,
      "target": 34962
    },
    {
      "buffer": 0,
      "byteOffset": 8640,
      "byteLength": 1200,
      "target": 34962
    },
    {
      "buffer": 0,
      "byteOffset": 9840,
      "byteLength": 800,
      "target": 34962
    },
    {
      "buffer": 0,
      "byteOffset": 10640,
      "byteLength": 1152,
      "target": 34963
    },
    {
      "buffer": 0,
      "byteOffset": 11792,
      "byteLength": 816,
      "target": 34962
    },
    {
      "buffer": 0,
      "byteOffset": 12608,
      "byteLength": 816,
      "target": 34962
    },
    {
      "buffer": 0,
      "byteOffset": 13424,
      "byteLength": 544,
      "target": 34962
    },
    {
      "buffer": 0,
      "byteOffset": 13968,
      "byteLength": 768,
      "target": 34963
    },
    {
      "buffer": 0,
      "byteOffset": 14736,
      "byteLength": 816,
      "target": 34962
    },
    {
      "buffer": 0,
      "byteOffset": 15552,
      "byteLength": 816,
      "target": 34962
    },
    {
      "buffer": 0,
      "byteOffset": 16368,
      "byteLength": 544,
      "target": 34962
    },
    {
      "buffer": 0,
      "byteOffset": 16912,
      "byteLength": 768,
      "target": 34963
    },
    {
      "buffer": 0,
      "byteOffset": 17680,
      "byteLength": 1200,
      "target": 34962
    },
    {
      "buffer": 0,
      "byteOffset": 18880,
      "byteLength": 1200,
      "target": 34962
    },
    {
      "buffer": 0,
      "byteOffset": 20080,
      "byteLength": 800,
      "target": 34962
    },
    {
      "buffer": 0,
      "byteOffset": 20880,
      "byteLength": 1152,
      "target": 34963
    },
    {
      "buffer": 0,
      "byteOffset": 22032,
      "byteLength": 288,
      "target": 34962
    },
    {
      "buffer": 0,
      "byteOffset": 22320,
      "byteLength": 288,
      "target": 34962
    },
    {
      "buffer": 0,
      "byteOffset": 22608,
      "byteLength": 192,
      "target": 34962
    },
    {
      "buffer": 0,
      "byteOffset": 22800,
      "byteLength": 72,
      "target": 34963
    },
    {
      "buffer": 0,
      "byteOffset": 22872,
      "byteLength": 288,
      "target": 34962
    },
    {
      "buffer": 0,
      "byteOffset": 23160,
      "byteLength": 288,
      "target": 34962
    },
    {
      "buffer": 0,
      "byteOffset": 23448,
      "byteLength": 192,
      "target": 34962
    },
    {
      "buffer": 0,
      "byteOffset": 23640,
      "byteLength": 72,
      "target": 34963
    },
    {
      "buffer": 0,
      "byteOffset": 23712,
      "byteLength": 288,
      "target": 34962
    },
    {
      "buffer": 0,
      "byteOffset": 24000,
      "byteLength": 288,
      "target": 34962
    },
    {
      "buffer": 0,
      "byteOffset": 24288,
      "byteLength": 192,
      "target": 34962
    },
    {
      "buffer": 0,
      "byteOffset": 24480,
      "byteLength": 72,
      "target": 34963
    },
    {
      "buffer": 0,
      "byteOffset": 24552,
      "byteLength": 288,
      "target": 34962
    },
    {
      "buffer": 0,
      "byteOffset": 24840,
      "byteLength": 288,
      "target": 34962
    },
    {
      "buffer": 0,
      "byteOffset": 25128,
      "byteLength": 192,
      "target": 34962
    },
    {
      "buffer": 0,
      "byteOffset": 25320,
      "byteLength": 72,
      "target": 34963
    }
  ],
  "accessors": [
    {
      "bufferView": 0,
      "componentType": 5126,
      "count": 24,
      "type": "VEC3",
      "min": [
        -0.5,
        -0.5,
        -0.5
      ],
      "max": [
        0.5,
        0.5,
        0.5
      ]
    },
    {
      "bufferView": 1,
      "componentType": 5126,
      "count": 24,
      "type": "VEC3"
    },
    {
      "bufferView": 2,
      "componentType": 5126,
      "count": 24,
      "type": "VEC2"
    },
    {
      "bufferView": 3,
      "componentType": 5123,
      "count": 36,
      "type": "SCALAR",
      "min": [
        0
      ],
      "max": [
        23
      ]
    },
    {
      "bufferView": 4,
      "componentType": 5126,
      "count": 24,
      "type": "VEC3",
      "min": [
        -0.5,
        -0.5,
        -0.5
      ],
      "max": [
        0.5,
        0.5,
        0.5
      ]
    },
    {
      "bufferView": 5,
      "componentType": 5126,
      "count": 24,
      "type": "VEC3"
    },
    {
      "bufferView": 6,
      "componentType": 5126,
      "count": 24,
      "type": "VEC2"
    },
    {
      "bufferView": 7,
      "componentType": 5123,
      "count": 36,
      "type": "SCALAR",
      "min": [
        0
      ],
      "max": [
        23
      ]
    },
    {
      "bufferView": 8,
      "componentType": 5126,
      "count": 132,
      "type": "VEC3",
      "min": [
        -0.5,
        -0.5,
        -0.5
      ],
      "max": [
        0.5,
        0.5,
        0.5
      ]
    },
    {
      "bufferView": 9,
      "componentType": 5126,
      "count": 132,
      "type": "VEC3"
    },
    {
      "bufferView": 10,
      "componentType": 5126,
      "count": 132,
      "type": "VEC2"
    },
    {
      "bufferView": 11,
      "componentType": 5123,
      "count": 768,
      "type": "SCALAR",
      "min": [
        0
      ],
      "max": [
        131
      ]
    },
    {
      "bufferView": 12,
      "componentType": 5126,
      "count": 100,
      "type": "VEC3",
      "min": [
        -0.5,
        -0.5,
        -0.5
      ],
      "max": [
        0.5,
        0.5,
        0.5
      ]
    },
    {
      "bufferView": 13,
      "componentType": 5126,
      "count": 100,
      "type": "VEC3"
    },
    {
      "bufferView": 14,
      "componentType": 5126,
      "count": 100,
      "type": "VEC2"
    },
    {
      "bufferView": 15,
      "componentType": 5123,
      "count": 576,
      "type": "SCALAR",
      "min": [
        0
      ],
      "max": [
        99
      ]
    },
    {
      "bufferView": 16,
      "componentType": 5126,
      "count": 68,
      "type": "VEC3",
      "min": [
        -0.5,
        -0.5,
        -0.5
      ],
      "max": [
        0.5,
        0.5,
        0.5
      ]
    },
    {
      "bufferView": 17,
      "componentType": 5126,
      "count": 68,
      "type": "VEC3"
    },
    {
      "bufferView": 18,
      "componentType": 5126,
      "count": 68,
      "type": "VEC2"
    },
    {
      "bufferView": 19,
      "componentType": 5123,
      "count": 384,
      "type": "SCALAR",
      "min": [
        0
      ],
      "max": [
        67
      ]
    },
    {
      "bufferView": 20,
      "componentType": 5126,
      "count": 68,
      "type": "VEC3",
      "min": [
        -0.5,
        -0.5,
        -0.5
      ],
      "max": [
        0.5,
        0.5,
        0.5
      ]
    },
    {
      "bufferView": 21,
      "componentType": 5126,
      "count": 68,
      "type": "VEC3"
    },
    {
      "bufferView": 22,
      "componentType": 5126,
      "count": 68,
      "type": "VEC2"
    },
    {
      "bufferView": 23,
      "componentType": 5123,
      "count": 384,
      "type": "SCALAR",
      "min": [
        0
      ],
      "max": [
        67
      ]
    },
    {
      "bufferView": 24,
      "componentType": 5126,
      "count": 100,
      "type": "VEC3",
      "min": [
        -0.5,
        -0.5,
        -0.5
      ],
      "max": [
        0.5,
        0.5,
        0.5
      ]
    },
    {
      "bufferView": 25,
      "componentType": 5126,
      "count": 100,
      "type": "VEC3"
    },
    {
      "bufferView": 26,
      "componentType": 5126,
      "count": 100,
      "type": "VEC2"
    },
    {
      "bufferView": 27,
      "componentType": 5123,
      "count": 576,
      "type": "SCALAR",
      "min": [
        0
      ],
      "max": [
        99
      ]
    },
    {
      "bufferView": 28,
      "componentType": 5126,
      "count": 24,
      "type": "VEC3",
      "min": [
        -0.5,
        -0.5,
        -0.5
      ],
      "max": [
        0.5,
        0.5,
        0.5
      ]
    },
    {
      "bufferView": 29,
      "componentType": 5126,
      "count": 24,
      "type": "VEC3"
    },
    {
      "bufferView": 30,
      "componentType": 5126,
      "count": 24,
      "type": "VEC2"
    },
    {
      "bufferView": 31,
      "componentType": 5123,
      "count": 36,
      "type": "SCALAR",
      "min": [
        0
      ],
      "max": [
        23
      ]
    },
    {
      "bufferView": 32,
      "componentType": 5126,
      "count": 24,
      "type": "VEC3",
      "min": [
        -0.5,
        -0.5,
        -0.5
      ],
      "max": [
        0.5,
        0.5,
        0.5
      ]
    },
    {
      "bufferView": 33,
      "componentType": 5126,
      "count": 24,
      "type": "VEC3"
    },
    {
      "bufferView": 34,
      "componentType": 5126,
      "count": 24,
      "type": "VEC2"
    },
    {
      "bufferView": 35,
      "componentType": 5123,
      "count": 36,
      "type": "SCALAR",
      "min": [
        0
      ],
      "max": [
        23
      ]
    },
    {
      "bufferView": 36,
      "componentType": 5126,
      "count": 24,
      "type": "VEC3",
      "min": [
        -0.5,
        -0.5,
        -0.5
      ],
      "max": [
        0.5,
        0.5,
        0.5
      ]
    },
    {
      "bufferView": 37,
      "componentType": 5126,
      "count": 24,
      "type": "VEC3"
    },
    {
      "bufferView": 38,
      "componentType": 5126,
      "count": 24,
      "type": "VEC2"
    },
    {
      "bufferView": 39,
      "componentType": 5123,
      "count": 36,
      "type": "SCALAR",
      "min": [
        0
      ],
      "max": [
        23
      ]
    },
    {
      "bufferView": 40,
      "componentType": 5126,
      "count": 24,
      "type": "VEC3",
      "min": [
        -0.5,
        -0.5,
        -0.5
      ],
      "max": [
        0.5,
        0.5,
        0.5
      ]
    },
    {
      "bufferView": 41,
      "componentType": 5126,
      "count": 24,
      "type": "VEC3"
    },
    {
      "bufferView": 42,
      "componentType": 5126,
      "count": 24,
      "type": "VEC2"
    },
    {
      "bufferView": 43,
      "componentType": 5123,
      "count": 36,
      "type": "SCALAR",
      "min": [
        0
      ],
      "max": [
        23
      ]
    }
  ]
}