<svg xmlns="http://www.w3.org/2000/svg" width="640" height="360" viewBox="0 0 640 360" role="img" aria-label="Aura3D external parity evidence thumbnail">
  <defs>
    <linearGradient id="bg" x1="0" y1="0" x2="1" y2="1">
      <stop offset="0" stop-color="#101820"/>
      <stop offset="0.52" stop-color="#203241"/>
      <stop offset="1" stop-color="#141b22"/>
    </linearGradient>
    <linearGradient id="mesh" x1="0" y1="0" x2="1" y2="1">
      <stop offset="0" stop-color="#6bb8ff"/>
      <stop offset="1" stop-color="#9bdc8c"/>
    </linearGradient>
  </defs>
  <rect width="640" height="360" fill="url(#bg)"/>
  <g opacity="0.22" stroke="#d7e5ef" stroke-width="1">
    <path d="M0 280H640M0 230H640M0 180H640M0 130H640"/>
    <path d="M70 0L0 360M170 0L90 360M270 0L210 360M390 0L430 360M520 0L600 360"/>
  </g>
  <g transform="translate(96 72)">
    <rect x="0" y="0" width="448" height="216" rx="10" fill="#111923" stroke="#516271"/>
    <path d="M92 160L184 54L282 160Z" fill="url(#mesh)" opacity="0.88"/>
    <path d="M236 162L312 86L386 162Z" fill="#f0c96b" opacity="0.82"/>
    <circle cx="370" cy="58" r="24" fill="#f58f79"/>
    <path d="M72 182H408" stroke="#d7e5ef" stroke-width="4" stroke-linecap="round" opacity="0.72"/>
  </g>
  <text x="48" y="318" fill="#eef5f9" font-family="Inter, system-ui, sans-serif" font-size="28" font-weight="700">Aura3D Evidence</text>
  <text x="48" y="344" fill="#b8c7d2" font-family="Inter, system-ui, sans-serif" font-size="16">External parity gallery thumbnail</text>
</svg>
